<mxfile host="app.diagrams.net" modified="2023-01-11T08:20:01.033Z" agent="5.0 (Windows NT 10.0; Win64; x64) AppleWebKit/537.36 (KHTML, like Gecko) Chrome/108.0.0.0 Safari/537.36" etag="mXw0HZ05MjHLLLHhq8Qv" version="20.8.3" type="github">
  <diagram id="kgpKYQtTHZ0yAKxKKP6v" name="Page-1">
    <mxGraphModel dx="3100" dy="775" grid="1" gridSize="10" guides="1" tooltips="1" connect="1" arrows="1" fold="1" page="1" pageScale="1" pageWidth="850" pageHeight="1100" math="0" shadow="0">
      <root>
        <mxCell id="0" />
        <mxCell id="1" parent="0" />
        <mxCell id="3nuBFxr9cyL0pnOWT2aG-1" value="HomeView" style="shape=umlLifeline;perimeter=lifelinePerimeter;container=1;collapsible=0;recursiveResize=0;rounded=0;shadow=0;strokeWidth=1;" parent="1" vertex="1">
          <mxGeometry x="-680" y="59" width="100" height="1181" as="geometry" />
        </mxCell>
        <mxCell id="3nuBFxr9cyL0pnOWT2aG-2" value="" style="points=[];perimeter=orthogonalPerimeter;rounded=0;shadow=0;strokeWidth=1;" parent="3nuBFxr9cyL0pnOWT2aG-1" vertex="1">
          <mxGeometry x="45" y="80" width="10" height="30" as="geometry" />
        </mxCell>
        <mxCell id="VgFMn7d585Ha0XAmIZsE-6" value="1: open home page and &#xa;turn off internet connection" style="verticalAlign=bottom;endArrow=block;shadow=0;strokeWidth=1;fontStyle=0;labelBorderColor=none;labelBackgroundColor=none;exitX=1.021;exitY=0.034;exitDx=0;exitDy=0;exitPerimeter=0;" parent="3nuBFxr9cyL0pnOWT2aG-1" edge="1">
          <mxGeometry relative="1" as="geometry">
            <mxPoint x="-164.78999999999996" y="78.62" as="sourcePoint" />
            <mxPoint x="44" y="80" as="targetPoint" />
          </mxGeometry>
        </mxCell>
        <mxCell id="3nuBFxr9cyL0pnOWT2aG-5" value="HomeUtilities" style="shape=umlLifeline;perimeter=lifelinePerimeter;container=1;collapsible=0;recursiveResize=0;rounded=0;shadow=0;strokeWidth=1;" parent="1" vertex="1">
          <mxGeometry x="-455" y="59" width="100" height="1181" as="geometry" />
        </mxCell>
        <mxCell id="VgFMn7d585Ha0XAmIZsE-7" value="2: isOfflineModeFeatureAvailable()" style="verticalAlign=bottom;endArrow=block;shadow=0;strokeWidth=1;fontStyle=0;labelBorderColor=none;labelBackgroundColor=none;entryX=-0.024;entryY=0.003;entryDx=0;entryDy=0;entryPerimeter=0;" parent="3nuBFxr9cyL0pnOWT2aG-5" edge="1">
          <mxGeometry relative="1" as="geometry">
            <mxPoint x="-169.63333333333344" y="99" as="sourcePoint" />
            <mxPoint x="44.76000000000022" y="99.21000000000004" as="targetPoint" />
          </mxGeometry>
        </mxCell>
        <mxCell id="VgFMn7d585Ha0XAmIZsE-16" value="" style="points=[];perimeter=orthogonalPerimeter;rounded=0;shadow=0;strokeWidth=1;" parent="3nuBFxr9cyL0pnOWT2aG-5" vertex="1">
          <mxGeometry x="45" y="100" width="10" height="170" as="geometry" />
        </mxCell>
        <mxCell id="D12k0bA-BJYKIJGbDswn-10" value="" style="group" parent="1" vertex="1" connectable="0">
          <mxGeometry x="-860" y="59" width="20" height="710" as="geometry" />
        </mxCell>
        <mxCell id="D12k0bA-BJYKIJGbDswn-4" value="User" style="shape=umlActor;verticalLabelPosition=bottom;verticalAlign=top;html=1;outlineConnect=0;" parent="D12k0bA-BJYKIJGbDswn-10" vertex="1">
          <mxGeometry y="-20" width="20" height="40" as="geometry" />
        </mxCell>
        <mxCell id="VgFMn7d585Ha0XAmIZsE-21" value="" style="points=[];perimeter=orthogonalPerimeter;rounded=0;shadow=0;strokeWidth=1;" parent="1" vertex="1">
          <mxGeometry x="-855" y="100" width="10" height="1140" as="geometry" />
        </mxCell>
        <mxCell id="VgFMn7d585Ha0XAmIZsE-23" value="&lt;b&gt;alt&lt;/b&gt;" style="shape=umlFrame;whiteSpace=wrap;html=1;fontSize=11;width=30;height=20;fillColor=none;" parent="1" vertex="1">
          <mxGeometry x="-890" y="213" width="770" height="337" as="geometry" />
        </mxCell>
        <mxCell id="VgFMn7d585Ha0XAmIZsE-24" value="&lt;span style=&quot;font-size: 10px;&quot;&gt;[Acad is not permitted to access Offline Mode]&lt;/span&gt;" style="text;html=1;strokeColor=none;fillColor=none;align=center;verticalAlign=middle;whiteSpace=wrap;rounded=0;" parent="1" vertex="1">
          <mxGeometry x="-840" y="213" width="110" height="35.5" as="geometry" />
        </mxCell>
        <mxCell id="VgFMn7d585Ha0XAmIZsE-25" value="" style="points=[];perimeter=orthogonalPerimeter;rounded=0;shadow=0;strokeWidth=1;" parent="1" vertex="1">
          <mxGeometry x="-635" y="232" width="10" height="58" as="geometry" />
        </mxCell>
        <mxCell id="VgFMn7d585Ha0XAmIZsE-26" value="5: return false" style="verticalAlign=bottom;endArrow=open;dashed=1;endSize=8;exitX=0;exitY=0.95;shadow=0;strokeWidth=1;entryX=1.046;entryY=0.283;entryDx=0;entryDy=0;entryPerimeter=0;" parent="1" edge="1">
          <mxGeometry relative="1" as="geometry">
            <mxPoint x="-625" y="232" as="targetPoint" />
            <mxPoint x="-410.46000000000004" y="232.22000000000003" as="sourcePoint" />
          </mxGeometry>
        </mxCell>
        <mxCell id="VgFMn7d585Ha0XAmIZsE-49" value="" style="line;strokeWidth=1;fillColor=none;align=left;verticalAlign=middle;spacingTop=-1;spacingLeft=3;spacingRight=3;rotatable=0;labelPosition=right;points=[];portConstraint=eastwest;strokeColor=inherit;fontSize=10;dashed=1;" parent="1" vertex="1">
          <mxGeometry x="-889" y="297" width="769" height="8" as="geometry" />
        </mxCell>
        <mxCell id="VgFMn7d585Ha0XAmIZsE-50" value="&lt;span style=&quot;font-size: 10px;&quot;&gt;[Acad is permitted to access Offline Mode]&lt;/span&gt;" style="text;html=1;strokeColor=none;fillColor=none;align=center;verticalAlign=middle;whiteSpace=wrap;rounded=0;" parent="1" vertex="1">
          <mxGeometry x="-844" y="301" width="110" height="35.5" as="geometry" />
        </mxCell>
        <mxCell id="VgFMn7d585Ha0XAmIZsE-52" value="7: return true" style="verticalAlign=bottom;endArrow=open;dashed=1;endSize=8;exitX=0;exitY=0.95;shadow=0;strokeWidth=1;entryX=1.046;entryY=0.283;entryDx=0;entryDy=0;entryPerimeter=0;" parent="1" edge="1">
          <mxGeometry relative="1" as="geometry">
            <mxPoint x="-625.0000000000002" y="320" as="targetPoint" />
            <mxPoint x="-410.46000000000004" y="320.2199999999999" as="sourcePoint" />
          </mxGeometry>
        </mxCell>
        <mxCell id="Guo4P8dY95QTmtFHYeZ4-5" value="6: show &#39;No Internet Connection&#39;&#xa;Â  floating header" style="verticalAlign=bottom;endArrow=open;dashed=1;endSize=8;shadow=0;strokeWidth=1;entryX=1.046;entryY=0.283;entryDx=0;entryDy=0;entryPerimeter=0;exitX=-0.105;exitY=0.86;exitDx=0;exitDy=0;exitPerimeter=0;labelBackgroundColor=none;" parent="1" edge="1">
          <mxGeometry relative="1" as="geometry">
            <mxPoint x="-844.9999999999998" y="279.5" as="targetPoint" />
            <mxPoint x="-636.05" y="279.6600000000001" as="sourcePoint" />
          </mxGeometry>
        </mxCell>
        <mxCell id="Guo4P8dY95QTmtFHYeZ4-6" value="" style="points=[];perimeter=orthogonalPerimeter;rounded=0;shadow=0;strokeWidth=1;" parent="1" vertex="1">
          <mxGeometry x="-635" y="320" width="10" height="30" as="geometry" />
        </mxCell>
        <mxCell id="Guo4P8dY95QTmtFHYeZ4-7" value="8: isOfflineDataExist()" style="verticalAlign=bottom;endArrow=block;shadow=0;strokeWidth=1;fontStyle=0;labelBorderColor=none;labelBackgroundColor=none;entryX=-0.024;entryY=0.003;entryDx=0;entryDy=0;entryPerimeter=0;" parent="1" edge="1">
          <mxGeometry relative="1" as="geometry">
            <mxPoint x="-625.0033333333332" y="341" as="sourcePoint" />
            <mxPoint x="-410.6099999999998" y="341.21000000000004" as="targetPoint" />
          </mxGeometry>
        </mxCell>
        <mxCell id="Guo4P8dY95QTmtFHYeZ4-10" value="" style="points=[];perimeter=orthogonalPerimeter;rounded=0;shadow=0;strokeWidth=1;" parent="1" vertex="1">
          <mxGeometry x="-410" y="341" width="10" height="169" as="geometry" />
        </mxCell>
        <mxCell id="Guo4P8dY95QTmtFHYeZ4-11" value="&lt;b&gt;alt&lt;/b&gt;" style="shape=umlFrame;whiteSpace=wrap;html=1;fontSize=11;width=30;height=20;fillColor=none;" parent="1" vertex="1">
          <mxGeometry x="-890" y="390" width="550" height="160" as="geometry" />
        </mxCell>
        <mxCell id="Guo4P8dY95QTmtFHYeZ4-12" value="&lt;span style=&quot;font-size: 10px;&quot;&gt;[Offline data exists]&lt;/span&gt;" style="text;html=1;strokeColor=none;fillColor=none;align=left;verticalAlign=middle;whiteSpace=wrap;rounded=0;" parent="1" vertex="1">
          <mxGeometry x="-845" y="390" width="110" height="20" as="geometry" />
        </mxCell>
        <mxCell id="Guo4P8dY95QTmtFHYeZ4-13" value="11: return true" style="verticalAlign=bottom;endArrow=open;dashed=1;endSize=8;exitX=0;exitY=0.95;shadow=0;strokeWidth=1;entryX=1.046;entryY=0.283;entryDx=0;entryDy=0;entryPerimeter=0;" parent="1" edge="1">
          <mxGeometry relative="1" as="geometry">
            <mxPoint x="-624.54" y="418" as="targetPoint" />
            <mxPoint x="-410.00000000000006" y="418.2199999999999" as="sourcePoint" />
          </mxGeometry>
        </mxCell>
        <mxCell id="Guo4P8dY95QTmtFHYeZ4-14" value="" style="points=[];perimeter=orthogonalPerimeter;rounded=0;shadow=0;strokeWidth=1;" parent="1" vertex="1">
          <mxGeometry x="-635" y="418" width="10" height="50" as="geometry" />
        </mxCell>
        <mxCell id="Guo4P8dY95QTmtFHYeZ4-15" value="12: show &#39;You are currently accessing &#xa;BINUSMAYA LMS Offline Mode&#39; &#xa;floating header" style="verticalAlign=bottom;endArrow=open;dashed=1;endSize=8;shadow=0;strokeWidth=1;entryX=1.046;entryY=0.283;entryDx=0;entryDy=0;entryPerimeter=0;exitX=-0.036;exitY=0.882;exitDx=0;exitDy=0;exitPerimeter=0;labelBackgroundColor=none;" parent="1" edge="1">
          <mxGeometry relative="1" as="geometry">
            <mxPoint x="-844.9999999999998" y="456.35" as="targetPoint" />
            <mxPoint x="-635.3600000000004" y="457.56000000000006" as="sourcePoint" />
          </mxGeometry>
        </mxCell>
        <mxCell id="Guo4P8dY95QTmtFHYeZ4-18" value="" style="line;strokeWidth=1;fillColor=none;align=left;verticalAlign=middle;spacingTop=-1;spacingLeft=3;spacingRight=3;rotatable=0;labelPosition=right;points=[];portConstraint=eastwest;strokeColor=inherit;fontSize=10;dashed=1;" parent="1" vertex="1">
          <mxGeometry x="-890" y="473" width="550" height="8" as="geometry" />
        </mxCell>
        <mxCell id="Guo4P8dY95QTmtFHYeZ4-19" value="&lt;span style=&quot;font-size: 10px;&quot;&gt;[Offline data not exists]&lt;/span&gt;" style="text;html=1;strokeColor=none;fillColor=none;align=left;verticalAlign=middle;whiteSpace=wrap;rounded=0;" parent="1" vertex="1">
          <mxGeometry x="-845" y="476" width="110" height="20" as="geometry" />
        </mxCell>
        <mxCell id="Guo4P8dY95QTmtFHYeZ4-20" value="" style="points=[];perimeter=orthogonalPerimeter;rounded=0;shadow=0;strokeWidth=1;" parent="1" vertex="1">
          <mxGeometry x="-635" y="496" width="10" height="44" as="geometry" />
        </mxCell>
        <mxCell id="Guo4P8dY95QTmtFHYeZ4-21" value="13: return false" style="verticalAlign=bottom;endArrow=open;dashed=1;endSize=8;exitX=0;exitY=0.95;shadow=0;strokeWidth=1;entryX=1.046;entryY=0.283;entryDx=0;entryDy=0;entryPerimeter=0;" parent="1" edge="1">
          <mxGeometry relative="1" as="geometry">
            <mxPoint x="-624.5399999999997" y="497" as="targetPoint" />
            <mxPoint x="-410.0000000000002" y="497.2199999999999" as="sourcePoint" />
          </mxGeometry>
        </mxCell>
        <mxCell id="Guo4P8dY95QTmtFHYeZ4-22" value="14: show &#39;No Internet Connection&#39; &#xa;floating header" style="verticalAlign=bottom;endArrow=open;dashed=1;endSize=8;shadow=0;strokeWidth=1;entryX=1.046;entryY=0.283;entryDx=0;entryDy=0;entryPerimeter=0;exitX=0;exitY=0.908;exitDx=0;exitDy=0;exitPerimeter=0;labelBackgroundColor=none;" parent="1" edge="1">
          <mxGeometry relative="1" as="geometry">
            <mxPoint x="-843.9499999999998" y="526.0000000000001" as="targetPoint" />
            <mxPoint x="-635" y="525.8480000000001" as="sourcePoint" />
          </mxGeometry>
        </mxCell>
        <mxCell id="Guo4P8dY95QTmtFHYeZ4-23" value="15: open role modal menu" style="verticalAlign=bottom;endArrow=block;shadow=0;strokeWidth=1;fontStyle=0;labelBorderColor=none;labelBackgroundColor=none;entryX=0.073;entryY=-0.003;entryDx=0;entryDy=0;entryPerimeter=0;" parent="1" target="Guo4P8dY95QTmtFHYeZ4-24" edge="1">
          <mxGeometry relative="1" as="geometry">
            <mxPoint x="-845" y="578.0000000000002" as="sourcePoint" />
            <mxPoint x="-720" y="578" as="targetPoint" />
          </mxGeometry>
        </mxCell>
        <mxCell id="Guo4P8dY95QTmtFHYeZ4-24" value="" style="points=[];perimeter=orthogonalPerimeter;rounded=0;shadow=0;strokeWidth=1;" parent="1" vertex="1">
          <mxGeometry x="-635" y="578" width="10" height="27" as="geometry" />
        </mxCell>
        <mxCell id="Guo4P8dY95QTmtFHYeZ4-25" value="" style="points=[];perimeter=orthogonalPerimeter;rounded=0;shadow=0;strokeWidth=1;" parent="1" vertex="1">
          <mxGeometry x="-410" y="595" width="10" height="55" as="geometry" />
        </mxCell>
        <mxCell id="Guo4P8dY95QTmtFHYeZ4-26" value="16: getUserRoleData()" style="verticalAlign=bottom;endArrow=block;shadow=0;strokeWidth=1;fontStyle=0;labelBorderColor=none;labelBackgroundColor=none;entryX=-0.024;entryY=0.003;entryDx=0;entryDy=0;entryPerimeter=0;" parent="1" edge="1">
          <mxGeometry relative="1" as="geometry">
            <mxPoint x="-624.3933333333331" y="594.9999999999999" as="sourcePoint" />
            <mxPoint x="-409.99999999999966" y="595.21" as="targetPoint" />
          </mxGeometry>
        </mxCell>
        <mxCell id="Guo4P8dY95QTmtFHYeZ4-29" value="19: return list role data" style="verticalAlign=bottom;endArrow=open;dashed=1;endSize=8;exitX=0;exitY=0.95;shadow=0;strokeWidth=1;entryX=1.046;entryY=0.283;entryDx=0;entryDy=0;entryPerimeter=0;" parent="1" edge="1">
          <mxGeometry relative="1" as="geometry">
            <mxPoint x="-624.9999999999998" y="640" as="targetPoint" />
            <mxPoint x="-410.46" y="640.2199999999999" as="sourcePoint" />
          </mxGeometry>
        </mxCell>
        <mxCell id="Guo4P8dY95QTmtFHYeZ4-31" value="" style="points=[];perimeter=orthogonalPerimeter;rounded=0;shadow=0;strokeWidth=1;" parent="1" vertex="1">
          <mxGeometry x="-635" y="640" width="10" height="30" as="geometry" />
        </mxCell>
        <mxCell id="Guo4P8dY95QTmtFHYeZ4-32" value="20: showÂ role data list" style="verticalAlign=bottom;endArrow=open;dashed=1;endSize=8;shadow=0;strokeWidth=1;entryX=1.046;entryY=0.283;entryDx=0;entryDy=0;entryPerimeter=0;exitX=-0.026;exitY=0.739;exitDx=0;exitDy=0;exitPerimeter=0;labelBackgroundColor=none;" parent="1" edge="1">
          <mxGeometry relative="1" as="geometry">
            <mxPoint x="-844.9499999999998" y="660" as="targetPoint" />
            <mxPoint x="-636.26" y="659.2990000000001" as="sourcePoint" />
          </mxGeometry>
        </mxCell>
        <mxCell id="Guo4P8dY95QTmtFHYeZ4-33" value="21: change active role" style="verticalAlign=bottom;endArrow=block;shadow=0;strokeWidth=1;fontStyle=0;labelBorderColor=none;labelBackgroundColor=none;entryX=-0.056;entryY=0.009;entryDx=0;entryDy=0;entryPerimeter=0;" parent="1" target="Guo4P8dY95QTmtFHYeZ4-34" edge="1">
          <mxGeometry relative="1" as="geometry">
            <mxPoint x="-845.73" y="690.0800000000003" as="sourcePoint" />
            <mxPoint x="-715.0000000000002" y="689.9990000000001" as="targetPoint" />
          </mxGeometry>
        </mxCell>
        <mxCell id="Guo4P8dY95QTmtFHYeZ4-34" value="" style="points=[];perimeter=orthogonalPerimeter;rounded=0;shadow=0;strokeWidth=1;" parent="1" vertex="1">
          <mxGeometry x="-635" y="690" width="10" height="30" as="geometry" />
        </mxCell>
        <mxCell id="Guo4P8dY95QTmtFHYeZ4-35" value="22: setCurrentActiveRole()" style="verticalAlign=bottom;endArrow=block;shadow=0;strokeWidth=1;fontStyle=0;labelBorderColor=none;labelBackgroundColor=none;entryX=-0.024;entryY=0.003;entryDx=0;entryDy=0;entryPerimeter=0;" parent="1" edge="1">
          <mxGeometry relative="1" as="geometry">
            <mxPoint x="-624.3933333333332" y="710.0699999999999" as="sourcePoint" />
            <mxPoint x="-409.99999999999955" y="710.28" as="targetPoint" />
          </mxGeometry>
        </mxCell>
        <mxCell id="Guo4P8dY95QTmtFHYeZ4-36" value="" style="points=[];perimeter=orthogonalPerimeter;rounded=0;shadow=0;strokeWidth=1;" parent="1" vertex="1">
          <mxGeometry x="-410" y="710" width="10" height="70" as="geometry" />
        </mxCell>
        <mxCell id="Guo4P8dY95QTmtFHYeZ4-39" value="25: close role modal" style="verticalAlign=bottom;endArrow=open;dashed=1;endSize=8;exitX=0;exitY=0.95;shadow=0;strokeWidth=1;entryX=1.046;entryY=0.283;entryDx=0;entryDy=0;entryPerimeter=0;" parent="1" edge="1">
          <mxGeometry relative="1" as="geometry">
            <mxPoint x="-624.9999999999995" y="769.26" as="targetPoint" />
            <mxPoint x="-410.46000000000004" y="769.4799999999998" as="sourcePoint" />
          </mxGeometry>
        </mxCell>
        <mxCell id="Guo4P8dY95QTmtFHYeZ4-40" value="" style="points=[];perimeter=orthogonalPerimeter;rounded=0;shadow=0;strokeWidth=1;" parent="1" vertex="1">
          <mxGeometry x="-635" y="770" width="10" height="50" as="geometry" />
        </mxCell>
        <mxCell id="Guo4P8dY95QTmtFHYeZ4-42" value="26: close role modal" style="verticalAlign=bottom;endArrow=open;dashed=1;endSize=8;shadow=0;strokeWidth=1;entryX=1.046;entryY=0.283;entryDx=0;entryDy=0;entryPerimeter=0;labelBackgroundColor=none;exitX=-0.032;exitY=0.499;exitDx=0;exitDy=0;exitPerimeter=0;" parent="1" edge="1">
          <mxGeometry relative="1" as="geometry">
            <mxPoint x="-843.95" y="789" as="targetPoint" />
            <mxPoint x="-635.3199999999999" y="788.94" as="sourcePoint" />
          </mxGeometry>
        </mxCell>
        <mxCell id="Guo4P8dY95QTmtFHYeZ4-70" value="27: isOfflineModeFeatureAvailable()" style="verticalAlign=bottom;endArrow=block;shadow=0;strokeWidth=1;fontStyle=0;labelBorderColor=none;labelBackgroundColor=none;entryX=-0.024;entryY=0.003;entryDx=0;entryDy=0;entryPerimeter=0;" parent="1" edge="1">
          <mxGeometry relative="1" as="geometry">
            <mxPoint x="-624.6333333333332" y="810" as="sourcePoint" />
            <mxPoint x="-410.2399999999998" y="810.21" as="targetPoint" />
          </mxGeometry>
        </mxCell>
        <mxCell id="Guo4P8dY95QTmtFHYeZ4-71" value="" style="points=[];perimeter=orthogonalPerimeter;rounded=0;shadow=0;strokeWidth=1;" parent="1" vertex="1">
          <mxGeometry x="-410" y="811" width="10" height="170" as="geometry" />
        </mxCell>
        <mxCell id="Guo4P8dY95QTmtFHYeZ4-74" value="&lt;b&gt;alt&lt;/b&gt;" style="shape=umlFrame;whiteSpace=wrap;html=1;fontSize=11;width=30;height=20;fillColor=none;" parent="1" vertex="1">
          <mxGeometry x="-890" y="865" width="590" height="335" as="geometry" />
        </mxCell>
        <mxCell id="Guo4P8dY95QTmtFHYeZ4-75" value="&lt;span style=&quot;font-size: 10px;&quot;&gt;[Acad is not permitted to access Offline Mode]&lt;/span&gt;" style="text;html=1;strokeColor=none;fillColor=none;align=center;verticalAlign=middle;whiteSpace=wrap;rounded=0;" parent="1" vertex="1">
          <mxGeometry x="-840" y="865" width="110" height="35.5" as="geometry" />
        </mxCell>
        <mxCell id="Guo4P8dY95QTmtFHYeZ4-76" value="" style="points=[];perimeter=orthogonalPerimeter;rounded=0;shadow=0;strokeWidth=1;" parent="1" vertex="1">
          <mxGeometry x="-635" y="884" width="10" height="58" as="geometry" />
        </mxCell>
        <mxCell id="Guo4P8dY95QTmtFHYeZ4-77" value="30: return false" style="verticalAlign=bottom;endArrow=open;dashed=1;endSize=8;exitX=0;exitY=0.95;shadow=0;strokeWidth=1;entryX=1.046;entryY=0.283;entryDx=0;entryDy=0;entryPerimeter=0;" parent="1" edge="1">
          <mxGeometry relative="1" as="geometry">
            <mxPoint x="-625" y="884" as="targetPoint" />
            <mxPoint x="-410.46000000000004" y="884.22" as="sourcePoint" />
          </mxGeometry>
        </mxCell>
        <mxCell id="Guo4P8dY95QTmtFHYeZ4-78" value="" style="line;strokeWidth=1;fillColor=none;align=left;verticalAlign=middle;spacingTop=-1;spacingLeft=3;spacingRight=3;rotatable=0;labelPosition=right;points=[];portConstraint=eastwest;strokeColor=inherit;fontSize=10;dashed=1;" parent="1" vertex="1">
          <mxGeometry x="-889" y="949" width="590" height="8" as="geometry" />
        </mxCell>
        <mxCell id="Guo4P8dY95QTmtFHYeZ4-79" value="&lt;span style=&quot;font-size: 10px;&quot;&gt;[Acad is permitted to access Offline Mode]&lt;/span&gt;" style="text;html=1;strokeColor=none;fillColor=none;align=center;verticalAlign=middle;whiteSpace=wrap;rounded=0;" parent="1" vertex="1">
          <mxGeometry x="-844" y="953" width="110" height="35.5" as="geometry" />
        </mxCell>
        <mxCell id="Guo4P8dY95QTmtFHYeZ4-80" value="32: return true" style="verticalAlign=bottom;endArrow=open;dashed=1;endSize=8;exitX=0;exitY=0.95;shadow=0;strokeWidth=1;entryX=1.046;entryY=0.283;entryDx=0;entryDy=0;entryPerimeter=0;" parent="1" edge="1">
          <mxGeometry relative="1" as="geometry">
            <mxPoint x="-625" y="972" as="targetPoint" />
            <mxPoint x="-410.46000000000004" y="972.2199999999998" as="sourcePoint" />
          </mxGeometry>
        </mxCell>
        <mxCell id="Guo4P8dY95QTmtFHYeZ4-81" value="31: show &#39;No Internet Connection&#39;&#xa;Â  floating header" style="verticalAlign=bottom;endArrow=open;dashed=1;endSize=8;shadow=0;strokeWidth=1;entryX=1.046;entryY=0.283;entryDx=0;entryDy=0;entryPerimeter=0;exitX=-0.105;exitY=0.86;exitDx=0;exitDy=0;exitPerimeter=0;labelBackgroundColor=none;" parent="1" edge="1">
          <mxGeometry relative="1" as="geometry">
            <mxPoint x="-845" y="931.5" as="targetPoint" />
            <mxPoint x="-636.0500000000002" y="931.6600000000001" as="sourcePoint" />
          </mxGeometry>
        </mxCell>
        <mxCell id="Guo4P8dY95QTmtFHYeZ4-82" value="" style="points=[];perimeter=orthogonalPerimeter;rounded=0;shadow=0;strokeWidth=1;" parent="1" vertex="1">
          <mxGeometry x="-635" y="972" width="10" height="30" as="geometry" />
        </mxCell>
        <mxCell id="Guo4P8dY95QTmtFHYeZ4-83" value="33: isOfflineDataExist()" style="verticalAlign=bottom;endArrow=block;shadow=0;strokeWidth=1;fontStyle=0;labelBorderColor=none;labelBackgroundColor=none;entryX=-0.024;entryY=0.003;entryDx=0;entryDy=0;entryPerimeter=0;" parent="1" edge="1">
          <mxGeometry relative="1" as="geometry">
            <mxPoint x="-625.0033333333331" y="993" as="sourcePoint" />
            <mxPoint x="-410.6099999999997" y="993.21" as="targetPoint" />
          </mxGeometry>
        </mxCell>
        <mxCell id="Guo4P8dY95QTmtFHYeZ4-86" value="" style="points=[];perimeter=orthogonalPerimeter;rounded=0;shadow=0;strokeWidth=1;" parent="1" vertex="1">
          <mxGeometry x="-410" y="993" width="10" height="169" as="geometry" />
        </mxCell>
        <mxCell id="Guo4P8dY95QTmtFHYeZ4-87" value="&lt;b&gt;alt&lt;/b&gt;" style="shape=umlFrame;whiteSpace=wrap;html=1;fontSize=11;width=30;height=20;fillColor=none;" parent="1" vertex="1">
          <mxGeometry x="-890" y="1042" width="500" height="158" as="geometry" />
        </mxCell>
        <mxCell id="Guo4P8dY95QTmtFHYeZ4-88" value="&lt;span style=&quot;font-size: 10px;&quot;&gt;[Offline data exists]&lt;/span&gt;" style="text;html=1;strokeColor=none;fillColor=none;align=left;verticalAlign=middle;whiteSpace=wrap;rounded=0;" parent="1" vertex="1">
          <mxGeometry x="-845" y="1042" width="110" height="20" as="geometry" />
        </mxCell>
        <mxCell id="Guo4P8dY95QTmtFHYeZ4-89" value="36: return true" style="verticalAlign=bottom;endArrow=open;dashed=1;endSize=8;exitX=0;exitY=0.95;shadow=0;strokeWidth=1;entryX=1.046;entryY=0.283;entryDx=0;entryDy=0;entryPerimeter=0;" parent="1" edge="1">
          <mxGeometry relative="1" as="geometry">
            <mxPoint x="-624.54" y="1070" as="targetPoint" />
            <mxPoint x="-410" y="1070.2199999999998" as="sourcePoint" />
          </mxGeometry>
        </mxCell>
        <mxCell id="Guo4P8dY95QTmtFHYeZ4-90" value="" style="points=[];perimeter=orthogonalPerimeter;rounded=0;shadow=0;strokeWidth=1;" parent="1" vertex="1">
          <mxGeometry x="-635" y="1070" width="10" height="50" as="geometry" />
        </mxCell>
        <mxCell id="Guo4P8dY95QTmtFHYeZ4-91" value="37: show &#39;You are currently accessing &#xa;BINUSMAYA LMS Offline Mode&#39; &#xa;floating header" style="verticalAlign=bottom;endArrow=open;dashed=1;endSize=8;shadow=0;strokeWidth=1;entryX=1.046;entryY=0.283;entryDx=0;entryDy=0;entryPerimeter=0;exitX=-0.036;exitY=0.882;exitDx=0;exitDy=0;exitPerimeter=0;labelBackgroundColor=none;" parent="1" edge="1">
          <mxGeometry relative="1" as="geometry">
            <mxPoint x="-845" y="1108.35" as="targetPoint" />
            <mxPoint x="-635.3600000000006" y="1109.56" as="sourcePoint" />
          </mxGeometry>
        </mxCell>
        <mxCell id="Guo4P8dY95QTmtFHYeZ4-92" value="" style="line;strokeWidth=1;fillColor=none;align=left;verticalAlign=middle;spacingTop=-1;spacingLeft=3;spacingRight=3;rotatable=0;labelPosition=right;points=[];portConstraint=eastwest;strokeColor=inherit;fontSize=10;dashed=1;" parent="1" vertex="1">
          <mxGeometry x="-890" y="1125" width="500" height="8" as="geometry" />
        </mxCell>
        <mxCell id="Guo4P8dY95QTmtFHYeZ4-93" value="&lt;span style=&quot;font-size: 10px;&quot;&gt;[Offline data not exists]&lt;/span&gt;" style="text;html=1;strokeColor=none;fillColor=none;align=left;verticalAlign=middle;whiteSpace=wrap;rounded=0;" parent="1" vertex="1">
          <mxGeometry x="-845" y="1128" width="110" height="20" as="geometry" />
        </mxCell>
        <mxCell id="Guo4P8dY95QTmtFHYeZ4-94" value="" style="points=[];perimeter=orthogonalPerimeter;rounded=0;shadow=0;strokeWidth=1;" parent="1" vertex="1">
          <mxGeometry x="-635" y="1148" width="10" height="44" as="geometry" />
        </mxCell>
        <mxCell id="Guo4P8dY95QTmtFHYeZ4-95" value="38: return false" style="verticalAlign=bottom;endArrow=open;dashed=1;endSize=8;exitX=0;exitY=0.95;shadow=0;strokeWidth=1;entryX=1.046;entryY=0.283;entryDx=0;entryDy=0;entryPerimeter=0;" parent="1" edge="1">
          <mxGeometry relative="1" as="geometry">
            <mxPoint x="-624.54" y="1149" as="targetPoint" />
            <mxPoint x="-410" y="1149.2199999999998" as="sourcePoint" />
          </mxGeometry>
        </mxCell>
        <mxCell id="Guo4P8dY95QTmtFHYeZ4-96" value="39: show &#39;No Internet Connection&#39; &#xa;floating header" style="verticalAlign=bottom;endArrow=open;dashed=1;endSize=8;shadow=0;strokeWidth=1;entryX=1.046;entryY=0.283;entryDx=0;entryDy=0;entryPerimeter=0;exitX=0;exitY=0.908;exitDx=0;exitDy=0;exitPerimeter=0;labelBackgroundColor=none;" parent="1" edge="1">
          <mxGeometry relative="1" as="geometry">
            <mxPoint x="-843.9499999999998" y="1178" as="targetPoint" />
            <mxPoint x="-635" y="1177.848" as="sourcePoint" />
          </mxGeometry>
        </mxCell>
        <mxCell id="QNvNGmrfRDXNHdKhkpKC-1" value="LocalDatabase" style="shape=umlLifeline;perimeter=lifelinePerimeter;container=1;collapsible=0;recursiveResize=0;rounded=0;shadow=0;strokeWidth=1;" vertex="1" parent="1">
          <mxGeometry x="-230" y="59" width="100" height="1181" as="geometry" />
        </mxCell>
        <mxCell id="QNvNGmrfRDXNHdKhkpKC-5" value="17: fetchUserRoleData()" style="verticalAlign=bottom;endArrow=block;shadow=0;strokeWidth=1;fontStyle=0;labelBorderColor=none;labelBackgroundColor=none;entryX=-0.024;entryY=0.003;entryDx=0;entryDy=0;entryPerimeter=0;" edge="1" parent="QNvNGmrfRDXNHdKhkpKC-1">
          <mxGeometry x="-0.0671" relative="1" as="geometry">
            <mxPoint x="-170.003333333333" y="551" as="sourcePoint" />
            <mxPoint x="44.39000000000044" y="551.21" as="targetPoint" />
            <mxPoint as="offset" />
          </mxGeometry>
        </mxCell>
        <mxCell id="QNvNGmrfRDXNHdKhkpKC-6" value="" style="points=[];perimeter=orthogonalPerimeter;rounded=0;shadow=0;strokeWidth=1;" vertex="1" parent="QNvNGmrfRDXNHdKhkpKC-1">
          <mxGeometry x="45" y="551" width="10" height="39" as="geometry" />
        </mxCell>
        <mxCell id="QNvNGmrfRDXNHdKhkpKC-8" value="" style="points=[];perimeter=orthogonalPerimeter;rounded=0;shadow=0;strokeWidth=1;" vertex="1" parent="QNvNGmrfRDXNHdKhkpKC-1">
          <mxGeometry x="45" y="301" width="10" height="29" as="geometry" />
        </mxCell>
        <mxCell id="QNvNGmrfRDXNHdKhkpKC-12" value="" style="points=[];perimeter=orthogonalPerimeter;rounded=0;shadow=0;strokeWidth=1;" vertex="1" parent="QNvNGmrfRDXNHdKhkpKC-1">
          <mxGeometry x="45" y="671" width="10" height="39" as="geometry" />
        </mxCell>
        <mxCell id="QNvNGmrfRDXNHdKhkpKC-20" value="" style="points=[];perimeter=orthogonalPerimeter;rounded=0;shadow=0;strokeWidth=1;" vertex="1" parent="QNvNGmrfRDXNHdKhkpKC-1">
          <mxGeometry x="45" y="768" width="10" height="32" as="geometry" />
        </mxCell>
        <mxCell id="QNvNGmrfRDXNHdKhkpKC-7" value="18: return list role data" style="verticalAlign=bottom;endArrow=open;dashed=1;endSize=8;exitX=0;exitY=0.95;shadow=0;strokeWidth=1;entryX=1.046;entryY=0.283;entryDx=0;entryDy=0;entryPerimeter=0;" edge="1" parent="1">
          <mxGeometry relative="1" as="geometry">
            <mxPoint x="-399.9999999999998" y="631.35" as="targetPoint" />
            <mxPoint x="-185.46000000000004" y="631.5699999999999" as="sourcePoint" />
          </mxGeometry>
        </mxCell>
        <mxCell id="QNvNGmrfRDXNHdKhkpKC-9" value="9: checkOfflineDataExists()" style="verticalAlign=bottom;endArrow=block;shadow=0;strokeWidth=1;fontStyle=0;labelBorderColor=none;labelBackgroundColor=none;entryX=-0.024;entryY=0.003;entryDx=0;entryDy=0;entryPerimeter=0;" edge="1" parent="1">
          <mxGeometry relative="1" as="geometry">
            <mxPoint x="-400.0033333333329" y="360" as="sourcePoint" />
            <mxPoint x="-185.60999999999967" y="360.21000000000004" as="targetPoint" />
          </mxGeometry>
        </mxCell>
        <mxCell id="QNvNGmrfRDXNHdKhkpKC-10" value="10: return boolean" style="verticalAlign=bottom;endArrow=open;dashed=1;endSize=8;exitX=0;exitY=0.95;shadow=0;strokeWidth=1;entryX=1.046;entryY=0.283;entryDx=0;entryDy=0;entryPerimeter=0;" edge="1" parent="1">
          <mxGeometry relative="1" as="geometry">
            <mxPoint x="-400.0000000000002" y="380" as="targetPoint" />
            <mxPoint x="-185.46000000000004" y="380.2199999999999" as="sourcePoint" />
          </mxGeometry>
        </mxCell>
        <mxCell id="QNvNGmrfRDXNHdKhkpKC-11" value="23: updateCurrentActiveRole()" style="verticalAlign=bottom;endArrow=block;shadow=0;strokeWidth=1;fontStyle=0;labelBorderColor=none;labelBackgroundColor=none;entryX=-0.024;entryY=0.003;entryDx=0;entryDy=0;entryPerimeter=0;" edge="1" parent="1">
          <mxGeometry x="-0.0671" relative="1" as="geometry">
            <mxPoint x="-400.0033333333331" y="730" as="sourcePoint" />
            <mxPoint x="-185.60999999999967" y="730.21" as="targetPoint" />
            <mxPoint as="offset" />
          </mxGeometry>
        </mxCell>
        <mxCell id="QNvNGmrfRDXNHdKhkpKC-13" value="24: return update active role data result" style="verticalAlign=bottom;endArrow=open;dashed=1;endSize=8;exitX=0;exitY=0.95;shadow=0;strokeWidth=1;entryX=1.046;entryY=0.283;entryDx=0;entryDy=0;entryPerimeter=0;" edge="1" parent="1">
          <mxGeometry relative="1" as="geometry">
            <mxPoint x="-400" y="758.9999999999999" as="targetPoint" />
            <mxPoint x="-185.46000000000004" y="759.2199999999999" as="sourcePoint" />
          </mxGeometry>
        </mxCell>
        <mxCell id="QNvNGmrfRDXNHdKhkpKC-14" value="" style="points=[];perimeter=orthogonalPerimeter;rounded=0;shadow=0;strokeWidth=1;" vertex="1" parent="1">
          <mxGeometry x="-185" y="174" width="10" height="29" as="geometry" />
        </mxCell>
        <mxCell id="QNvNGmrfRDXNHdKhkpKC-15" value="3: checkCurrentAcadOfflineModePermit()" style="verticalAlign=bottom;endArrow=block;shadow=0;strokeWidth=1;fontStyle=0;labelBorderColor=none;labelBackgroundColor=none;entryX=-0.024;entryY=0.003;entryDx=0;entryDy=0;entryPerimeter=0;" edge="1" parent="1">
          <mxGeometry relative="1" as="geometry">
            <mxPoint x="-400.0033333333331" y="174" as="sourcePoint" />
            <mxPoint x="-185.60999999999967" y="174.21000000000015" as="targetPoint" />
          </mxGeometry>
        </mxCell>
        <mxCell id="QNvNGmrfRDXNHdKhkpKC-16" value="4: return boolean" style="verticalAlign=bottom;endArrow=open;dashed=1;endSize=8;exitX=0;exitY=0.95;shadow=0;strokeWidth=1;entryX=1.046;entryY=0.283;entryDx=0;entryDy=0;entryPerimeter=0;" edge="1" parent="1">
          <mxGeometry relative="1" as="geometry">
            <mxPoint x="-400" y="194" as="targetPoint" />
            <mxPoint x="-185.46000000000004" y="194.2199999999999" as="sourcePoint" />
          </mxGeometry>
        </mxCell>
        <mxCell id="QNvNGmrfRDXNHdKhkpKC-18" value="28: checkCurrentAcadOfflineModePermit()" style="verticalAlign=bottom;endArrow=block;shadow=0;strokeWidth=1;fontStyle=0;labelBorderColor=none;labelBackgroundColor=none;entryX=-0.024;entryY=0.003;entryDx=0;entryDy=0;entryPerimeter=0;" edge="1" parent="1">
          <mxGeometry relative="1" as="geometry">
            <mxPoint x="-399.5433333333331" y="827" as="sourcePoint" />
            <mxPoint x="-185.14999999999966" y="827.2100000000002" as="targetPoint" />
          </mxGeometry>
        </mxCell>
        <mxCell id="QNvNGmrfRDXNHdKhkpKC-19" value="29: return boolean" style="verticalAlign=bottom;endArrow=open;dashed=1;endSize=8;exitX=0;exitY=0.95;shadow=0;strokeWidth=1;entryX=1.046;entryY=0.283;entryDx=0;entryDy=0;entryPerimeter=0;" edge="1" parent="1">
          <mxGeometry relative="1" as="geometry">
            <mxPoint x="-399.54" y="853" as="targetPoint" />
            <mxPoint x="-185.00000000000003" y="853.2199999999999" as="sourcePoint" />
          </mxGeometry>
        </mxCell>
        <mxCell id="QNvNGmrfRDXNHdKhkpKC-21" value="" style="points=[];perimeter=orthogonalPerimeter;rounded=0;shadow=0;strokeWidth=1;" vertex="1" parent="1">
          <mxGeometry x="-185" y="1010" width="10" height="29" as="geometry" />
        </mxCell>
        <mxCell id="QNvNGmrfRDXNHdKhkpKC-22" value="34: checkOfflineDataExists()" style="verticalAlign=bottom;endArrow=block;shadow=0;strokeWidth=1;fontStyle=0;labelBorderColor=none;labelBackgroundColor=none;entryX=-0.024;entryY=0.003;entryDx=0;entryDy=0;entryPerimeter=0;" edge="1" parent="1">
          <mxGeometry relative="1" as="geometry">
            <mxPoint x="-400.00333333333265" y="1010" as="sourcePoint" />
            <mxPoint x="-185.60999999999967" y="1010.21" as="targetPoint" />
          </mxGeometry>
        </mxCell>
        <mxCell id="QNvNGmrfRDXNHdKhkpKC-23" value="35: return boolean" style="verticalAlign=bottom;endArrow=open;dashed=1;endSize=8;exitX=0;exitY=0.95;shadow=0;strokeWidth=1;entryX=1.046;entryY=0.283;entryDx=0;entryDy=0;entryPerimeter=0;" edge="1" parent="1">
          <mxGeometry relative="1" as="geometry">
            <mxPoint x="-400" y="1030" as="targetPoint" />
            <mxPoint x="-185.46000000000004" y="1030.2199999999998" as="sourcePoint" />
          </mxGeometry>
        </mxCell>
      </root>
    </mxGraphModel>
  </diagram>
</mxfile>
